<?xml version="1.0" encoding="UTF-8"?>
<svg width="1024px" height="1024px" viewBox="0 0 1024 1024" version="1.1" xmlns="http://www.w3.org/2000/svg" xmlns:xlink="http://www.w3.org/1999/xlink">
    <title>Black Background</title>
    <g id="Black-Background" stroke="none" stroke-width="1" fill="none" fill-rule="evenodd">
        <rect fill="#000000" x="0" y="0" width="1024" height="1024"></rect>
        <text id="dedrm" font-family="AmazonEmberDisplay-Regular, Amazon Ember Display" font-size="234" font-weight="normal" fill="#FFFFFF">
            <tspan x="164.425" y="814">dedrm</tspan>
        </text>
        <g id="Amazon_Kindle-Logo.wine" transform="translate(102, 159)" fill="#FF9900">
            <path d="M643.340802,355.336678 C580.070216,402.12479 488.348036,427 409.365757,427 C298.669039,427 198.986336,385.998368 123.557953,317.752701 C117.634792,312.39087 122.919681,305.069516 130.037686,309.223911 C211.419866,356.672019 312.067636,385.251395 416.013994,385.251395 C486.131957,385.251395 563.21474,370.664965 634.144585,340.525132 C644.836911,335.987018 653.808456,347.595791 643.340802,355.336678 L643.340802,355.336678 Z" id="Path"></path>
            <path d="M669.883073,325.647572 C661.814815,315.257916 616.561302,320.721575 596.225218,323.174332 C590.065854,323.921937 589.108862,318.504364 594.65738,314.582 C630.763473,289.076393 689.918824,296.439787 696.795933,304.980913 C703.723945,313.598849 694.978666,373.25872 661.142884,401.729142 C655.940512,406.107238 650.987568,403.772254 653.293512,397.991119 C660.913817,378.860634 677.956422,336.042349 669.883073,325.647572 L669.883073,325.647572 Z" id="Path"></path>
            <path d="M107.159342,274.127536 L28.6245109,178.879227 L28.2414889,178.879227 L28.2414889,274.127536 L0,274.127536 L0,0 L28.2414889,0 L28.2414889,155.649552 L28.6245109,155.649552 L95.9444579,90.9875772 L132.694142,90.9875772 L52.2237732,165.713871 L143.142982,274.127536 L107.159342,274.127536 Z M176.016484,52.6563143 C165.184622,52.6563143 156.288298,43.7516907 156.288298,32.910835 C156.288298,22.0648706 165.184622,13.1653558 176.016484,13.1653558 C186.848346,13.1653558 195.744671,22.0648706 195.744671,32.910835 C195.744671,43.7516907 186.848346,52.6563143 176.016484,52.6563143 Z M162.089804,274.127536 L162.089804,90.9875772 L190.326186,90.9875772 L190.326186,274.127536 L162.089804,274.127536 Z M349.045397,274.127536 L349.045397,161.458248 C349.045397,138.611732 345.179428,113.057557 317.320961,113.057557 C294.880979,113.057557 274.381641,128.930572 260.454961,140.941341 L260.454961,274.132645 L232.213472,274.132645 L232.213472,90.9875772 L255.424605,90.9875772 L259.295681,113.057557 C279.40689,97.5728095 299.14529,86.3436857 324.68009,86.3436857 C350.980934,86.3436857 377.291992,105.312629 377.291992,151.00566 L377.291992,274.132645 L349.045397,274.132645 L349.045397,274.127536 Z M501.850747,278 C450.786254,278 407.841827,248.190201 407.841827,185.076191 C407.841827,128.164253 448.845609,86.3436857 502.233769,86.3436857 C515.384191,86.3436857 524.678859,87.5033814 532.022667,89.4396133 L532.022667,0 L560.264156,0 L560.264156,264.834644 C549.049272,271.419877 527.773676,278 501.850747,278 Z M532.027774,115.770325 C524.683966,113.057557 518.101094,111.126433 503.791392,111.126433 C467.807752,111.126433 436.471445,139.393377 436.471445,183.145068 C436.471445,224.572258 459.299556,253.998897 506.881103,253.998897 C516.160449,253.998897 526.226268,252.062665 532.027774,249.355006 L532.027774,115.770325 Z M633.768632,278 C611.328649,278 601.661174,263.674949 601.661174,244.312629 L601.661174,0 L629.902663,0 L629.902663,231.535541 C629.902663,248.95652 634.156761,252.445825 644.988623,252.445825 C646.924161,252.445825 650.018978,252.445825 654.661205,251.286129 L658.149259,271.808145 C649.63085,276.063768 643.053085,278 633.768632,278 Z M703.785054,187.400691 C703.785054,222.247758 723.901369,253.600412 763.362849,253.600412 C780.001325,253.600412 797.022823,247.025397 807.854685,240.057005 L816.751009,260.185644 C803.212458,269.478536 780.001325,277.994891 759.879902,277.994891 C701.466494,277.994891 673.60292,231.147273 673.60292,178.874118 C673.60292,125.829535 703.779947,86.3385769 747.883653,86.3385769 C795.082178,86.3385769 821,123.898412 821,180.815459 L821,187.400691 L703.785054,187.400691 Z M748.271782,110.349897 C721.19468,110.349897 704.168076,134.356108 704.168076,163.39448 L790.445058,163.39448 C790.445058,137.840304 776.135356,110.349897 748.271782,110.349897 Z" id="Shape" fill-rule="nonzero"></path>
        </g>
    </g>
</svg>